<svg xmlns="http://www.w3.org/2000/svg" viewBox="0 0 480 480" id="404"><path fill="none" stroke="#957f7d" stroke-miterlimit="10" stroke-width="2" d="M317.28,151.39c-15.75-8.1-36.15-14.27-58.86-17.02-22.71-2.75-44-1.62-61.22,2.49,6.94-28.91,35.29-48.6,66.35-44.84,31.06,3.76,53.89,29.64,53.74,59.37h-.01Z" class="colorStroke7d8395 svgStroke"></path><path fill="red" d="M273.99 83.66c.4-3.31-1.96-6.31-5.26-6.71-3.3-.4-6.31 1.96-6.71 5.26-.28 2.3.8 4.44 2.59 5.67l-.5 3.35 5.53.67.5-3.35c2.03-.77 3.59-2.59 3.86-4.89h-.01zM258.59 125.25c-71.59-8.66-132.44 7.31-135.87 35.66-3.43 28.36 51.86 58.37 123.45 67.03 71.59 8.66 132.44-7.31 135.87-35.66 3.43-28.36-51.86-58.37-123.45-67.03h0zm-7.92 82.43c-42.03-5.08-74.84-19.51-73.31-32.18 1.54-12.69 36.84-18.85 78.87-13.77 42 5.08 73.48 19.75 73.28 32.17-1.53 12.66-36.84 18.85-78.84 13.77h0z" class="colore53935 svgShape"></path><path fill="red" d="M268.52,269.02c0-.75,2.19-1.05,2.65-.81,.46,.24,.79,2.49,0,2.4-.79-.09-.9-1.2-.9-1.2,0,0-1.74,.36-1.74-.38h-.01Z" class="color7d8395 svgShape"></path><path fill="none" stroke="#957f7d" stroke-linecap="round" stroke-linejoin="round" stroke-width="2" d="M258.69,308.88s2.27,3.32,4.06,6.9c1.79,3.58,5.65,7.9,8.95,7.52s3.94,3.04,2.15,4.12c-1.79,1.08-5.14,2.22-11.4,.79-6.26-1.43-24.87-5.37-27.91-15.92-3.04-10.56-5.95-23.84-1-33.86,4.94-10.02,18.9-15.47,18.9-15.47,0,0,8.24-10.38,16.69-11.44,1.47-.18,2.77,.94,2.84,2.42l.24,4.94s2.18-.03,3.58,1.97c0,0,2.96-1.87,5.48-2.79,1.36-.5,2.8,.51,2.83,1.96,.03,1.95-1.22,5.27-2.31,7.24,0,0,.44,3.59-1.58,7.23-2.02,3.64-8.72,6.04-8.72,6.04" class="colorStroke7d8395 svgStroke"></path><path fill="none" stroke="#957f7d" stroke-linecap="round" stroke-linejoin="round" stroke-width="2" d="M263.52 314.8s3.91-2.23 8.12-5.51c9.19-1.1 10.31-4.72 10.22-6.52-.09-1.8-2.09-3.25-5.35-.25-2.7 2.48-7.42-.97-9.41-4.82-1.76-3.4-2.31-7.86-4.03-10.55M232.84 305.91s3.16 16.99-3.98 21.17-7.62 7.75-3.33 7.87c4.29.12 14.63-4.75 14.24-15.56" class="colorStroke7d8395 svgStroke"></path><path fill="none" stroke="#957f7d" stroke-linecap="round" stroke-linejoin="round" stroke-width="2" d="M257.26,275.06s1.19,4.65,9.42,5.25,10.52-.6,9.85,2.74c-.67,3.34-11.88,5.13-16.41,3.46" class="colorStroke7d8395 svgStroke"></path><path fill="none" stroke="#957f7d" stroke-linecap="round" stroke-linejoin="round" stroke-width="2" d="M277.14 277.54c1.69-1.22 5.03-2.33 5.54.42.52 2.75-2.75 3.82-6.26 5.46M265.62 265.4l3.88-.04-.88-2.96M275.62 270.4l-1.56-2.61 3.56-.39" class="colorStroke7d8395 svgStroke"></path><g fill="#000000" class="color000000 svgShape"><path fill="none" stroke="#957f7d" stroke-linecap="round" stroke-linejoin="round" stroke-width="2" d="M140.64 380.91c-3.65-16.75-6.69-40.94 1.68-55.07M145.54 325.81c2.28 0 4.12-1.85 4.12-4.12s-1.84-4.12-4.12-4.12-4.12 1.85-4.12 4.12 1.84 4.12 4.12 4.12z" class="colorStroke7d8395 svgStroke"></path><path fill="none" stroke="#957f7d" stroke-linecap="round" stroke-linejoin="round" stroke-width="2" d="M148.85 357.55c-6.69 2.29-9.54 6.66-9.69 12.48 6.63-1.96 10.39-5.78 9.69-12.48zM135.84 349.22c.99-7-1.6-11.52-6.72-14.3-1.26 6.8.43 11.89 6.72 14.3zM146.63 317.08c1.76 0 3.18-1.42 3.18-3.18s-1.42-3.18-3.18-3.18-3.18 1.42-3.18 3.18 1.42 3.18 3.18 3.18zM140.02 319.68c1.76 0 3.18-1.42 3.18-3.18s-1.42-3.18-3.18-3.18-3.18 1.42-3.18 3.18 1.42 3.18 3.18 3.18zM152.29 320.95c1.76 0 3.18-1.42 3.18-3.18s-1.42-3.18-3.18-3.18-3.18 1.42-3.18 3.18 1.42 3.18 3.18 3.18zM156.64 400.99l-18.28 4.51-9.95-21.58 27.01-6.65 1.22 23.72z" class="colorStroke7d8395 svgStroke"></path></g><path fill="#e9786e" d="M418.18 139.12l-6.59-3.22-.32-7.33c-.02-.54-.76-.68-.99-.19l-3 6.64-7.25.32c-.54.02-.68.76-.19.99l6.57 2.97.1 7.21c0 .54.74.71.98.22l3.18-6.53 7.29-.1c.54 0 .71-.74.22-.98h0zM216.67 50.35l-5.18-2.53-.25-5.76c-.02-.43-.6-.54-.77-.15l-2.36 5.22-5.7.25c-.43.02-.54.6-.15.77l5.17 2.33.08 5.67c0 .43.58.56.77.17l2.5-5.13 5.73-.08c.43 0 .56-.58.17-.77h0zM79.41 194.56l-3.92-1.91-.19-4.36c-.01-.32-.45-.41-.59-.11l-1.78 3.95-4.31.19c-.32.01-.41.45-.11.59l3.91 1.76.06 4.29c0 .32.44.42.58.13l1.89-3.88 4.33-.06c.32 0 .42-.44.13-.58h0z" class="colore53935 svgShape"></path><g fill="#000000" class="color000000 svgShape"><path fill="none" stroke="#957f7d" stroke-linecap="round" stroke-linejoin="round" stroke-width="2" d="M177.36 175.51l-2.86 6.1M169.06 193.23L62.95 419.74M60.23 425.55l-2.86 6.11M329.51 193.91l1.3 6.62M333.47 213.98l41.19 208.46M236.26 194.29l-14.89 56.88M293.98 245.39l7.28 62.58M304.82 357.76l7.27 62.58M201.88 315.11l-14.89 56.88M180.85 392.79l-9.62 36.76M375.99 429.16l1.31 6.62" class="colorStroke7d8395 svgStroke"></path></g></svg>