<?xml version="1.0" encoding="UTF-8"?>
<svg xmlns="http://www.w3.org/2000/svg" xmlns:xlink="http://www.w3.org/1999/xlink" width="512px" height="512px" viewBox="0 0 256 256" version="1.1">
<g id="surface1">
<path style=" stroke:none;fill-rule:nonzero;fill:rgb(99.215686%,37.254902%,52.941176%);fill-opacity:1;" d="M 171 108 C 174.0625 110.382812 175.890625 113.136719 176.5 117 C 176.550781 118.234375 176.574219 119.472656 176.582031 120.707031 C 176.582031 121.070312 176.585938 121.4375 176.589844 121.8125 C 176.59375 123.015625 176.597656 124.21875 176.601562 125.421875 C 176.605469 126.039062 176.605469 126.039062 176.605469 126.671875 C 176.613281 128.867188 176.617188 131.058594 176.621094 133.253906 C 176.621094 135.5 176.636719 137.746094 176.648438 139.996094 C 176.660156 141.738281 176.660156 143.480469 176.660156 145.222656 C 176.664062 146.050781 176.667969 146.878906 176.675781 147.707031 C 176.746094 157.5 175.078125 166.132812 168.136719 173.464844 C 165.523438 176.089844 162.671875 178.664062 159 179.5 C 159 179.871094 159.003906 180.246094 159.003906 180.628906 C 159.039062 189.679688 159.0625 198.730469 159.078125 207.78125 C 159.085938 212.15625 159.097656 216.535156 159.113281 220.910156 C 159.128906 224.726562 159.136719 228.539062 159.140625 232.355469 C 159.144531 234.375 159.148438 236.394531 159.160156 238.414062 C 159.167969 240.316406 159.171875 242.214844 159.167969 244.117188 C 159.171875 244.816406 159.171875 245.511719 159.179688 246.210938 C 159.1875 247.164062 159.183594 248.117188 159.179688 249.066406 C 159.183594 249.601562 159.183594 250.132812 159.183594 250.683594 C 159 252 159 252 158.382812 252.921875 C 157.246094 253.664062 156.542969 253.691406 155.1875 253.695312 C 154.476562 253.703125 154.476562 253.703125 153.75 253.707031 C 153.230469 253.707031 152.710938 253.703125 152.175781 253.703125 C 151.351562 253.707031 151.351562 253.707031 150.515625 253.710938 C 148.699219 253.722656 146.882812 253.71875 145.0625 253.714844 C 143.804688 253.71875 142.542969 253.722656 141.285156 253.726562 C 138.640625 253.730469 136 253.726562 133.355469 253.722656 C 130.304688 253.71875 127.25 253.722656 124.195312 253.738281 C 121.257812 253.75 118.316406 253.75 115.378906 253.75 C 114.128906 253.75 112.878906 253.75 111.628906 253.757812 C 109.882812 253.765625 108.136719 253.757812 106.390625 253.75 C 105.871094 253.753906 105.351562 253.761719 104.816406 253.765625 C 104.339844 253.761719 103.867188 253.753906 103.375 253.75 C 102.960938 253.75 102.550781 253.75 102.125 253.75 C 100.542969 253.398438 99.960938 252.792969 99 251.5 C 98.753906 250.144531 98.753906 250.144531 98.757812 248.5625 C 98.757812 247.964844 98.753906 247.363281 98.75 246.746094 C 98.757812 246.089844 98.765625 245.433594 98.773438 244.753906 C 98.773438 244.054688 98.773438 243.355469 98.773438 242.65625 C 98.773438 240.757812 98.785156 238.859375 98.796875 236.960938 C 98.808594 234.976562 98.8125 232.992188 98.8125 231.007812 C 98.820312 227.25 98.835938 223.492188 98.855469 219.734375 C 98.878906 215.457031 98.890625 211.175781 98.898438 206.898438 C 98.921875 198.101562 98.957031 189.300781 99 180.5 C 98.53125 180.347656 98.066406 180.199219 97.582031 180.042969 C 90.890625 177.746094 85.6875 172.160156 82.5 166 C 80.421875 161.089844 79.429688 156.578125 79.398438 151.273438 C 79.394531 150.882812 79.394531 150.492188 79.390625 150.089844 C 79.386719 149.269531 79.382812 148.449219 79.378906 147.628906 C 79.375 146.371094 79.359375 145.117188 79.34375 143.859375 C 79.339844 143.058594 79.335938 142.261719 79.335938 141.460938 C 79.328125 141.085938 79.324219 140.710938 79.316406 140.324219 C 79.328125 137.742188 79.328125 137.742188 80.1875 136.535156 C 81.363281 135.761719 82.078125 135.5 83.5 135.5 C 85.347656 136.886719 85.945312 137.632812 86.296875 139.941406 C 86.304688 140.695312 86.300781 141.453125 86.285156 142.207031 C 86.285156 142.613281 86.289062 143.015625 86.292969 143.433594 C 86.300781 144.726562 86.292969 146.019531 86.28125 147.3125 C 86.140625 155.128906 86.140625 155.128906 88.5 162.5 C 88.742188 162.996094 88.980469 163.496094 89.226562 164.007812 C 92.574219 169.519531 96.84375 172.894531 103 175 C 104.824219 175.378906 106.667969 175.648438 108.511719 175.929688 C 111.394531 176.394531 111.394531 176.394531 112.5 177.5 C 112.65625 179.21875 112.65625 179.21875 112.5 181 C 112.003906 181.496094 111.511719 181.988281 111 182.5 C 109.351562 182.5 107.699219 182.5 106 182.5 C 105.835938 203.949219 105.671875 225.398438 105.5 247.5 C 121.175781 247.5 136.851562 247.5 153 247.5 C 153 225.886719 153 204.269531 153 182 C 152.011719 182.164062 151.019531 182.328125 150 182.5 C 149.136719 182.566406 148.273438 182.609375 147.40625 182.625 C 146.777344 182.644531 146.777344 182.644531 146.132812 182.664062 C 145 182.5 145 182.5 144.117188 181.851562 C 143.066406 180.402344 143.253906 179.214844 143.5 177.5 C 145.34375 176.054688 146.863281 175.820312 149.15625 175.65625 C 154.4375 174.988281 160.253906 172.550781 163.8125 168.449219 C 165.199219 166.539062 166.46875 164.628906 167.5 162.5 C 167.664062 162.160156 167.828125 161.820312 168 161.472656 C 169.921875 156.96875 169.78125 152.605469 169.75 147.800781 C 169.75 146.917969 169.75 146.035156 169.75 145.152344 C 169.75 143.3125 169.746094 141.472656 169.734375 139.632812 C 169.71875 137.277344 169.71875 134.921875 169.726562 132.566406 C 169.730469 130.746094 169.726562 128.929688 169.71875 127.109375 C 169.71875 126.242188 169.71875 125.371094 169.71875 124.503906 C 169.722656 123.292969 169.714844 122.082031 169.703125 120.867188 C 169.703125 120.511719 169.707031 120.15625 169.707031 119.789062 C 169.675781 117.605469 169.308594 116.25 168 114.5 C 166.457031 113.011719 165.136719 112.582031 163 112.5 C 160.601562 112.9375 159.378906 113.457031 157.953125 115.503906 C 156.738281 117.703125 156.75 119.664062 156.800781 122.128906 C 156.796875 123.019531 156.796875 123.90625 156.792969 124.796875 C 156.800781 126.183594 156.8125 127.570312 156.828125 128.957031 C 156.84375 130.308594 156.839844 131.65625 156.832031 133.003906 C 156.847656 133.625 156.847656 133.625 156.863281 134.257812 C 156.839844 137.058594 156.839844 137.058594 155.878906 138.308594 C 154.582031 139.4375 153.222656 140.285156 151.5625 140.71875 C 151.226562 140.816406 150.886719 140.914062 150.539062 141.011719 C 150.195312 141.101562 149.851562 141.1875 149.5 141.28125 C 145.363281 142.382812 142.582031 144.03125 140 147.5 C 139.25 149.75 139.535156 152.070312 139.652344 154.421875 C 139.71875 157.257812 139.71875 157.257812 138.589844 158.515625 C 136.992188 159.226562 136.136719 159.089844 134.5 158.5 C 133.058594 156.25 132.742188 154.242188 132.78125 151.625 C 132.785156 151.273438 132.789062 150.921875 132.792969 150.558594 C 132.925781 146.191406 134.296875 142.5625 137.5 139.5 C 141.421875 136.671875 145.765625 134.914062 150.5 134 C 150.488281 133.464844 150.472656 132.929688 150.460938 132.382812 C 150.414062 130.378906 150.386719 128.375 150.363281 126.371094 C 150.351562 125.507812 150.332031 124.644531 150.3125 123.78125 C 150.0625 113.734375 150.0625 113.734375 153.855469 109.558594 C 158.578125 104.976562 165.441406 104.769531 171 108 Z M 171 108 "/>
<path style=" stroke:none;fill-rule:nonzero;fill:rgb(99.607843%,51.372549%,54.117647%);fill-opacity:1;" d="M 177.1875 21.8125 C 179.292969 23.757812 181.214844 25.753906 183 28 C 183.199219 28.25 183.398438 28.496094 183.601562 28.753906 C 196.285156 44.757812 200.671875 63.953125 198.804688 84.09375 C 197.523438 94.230469 193.308594 108.359375 185.5 115.5 C 184.019531 116.074219 183.664062 116.070312 182.15625 115.4375 C 181 114.5 181 114.5 180.613281 113.320312 C 180.480469 111.769531 180.726562 111.21875 181.53125 109.90625 C 181.765625 109.515625 181.996094 109.121094 182.238281 108.71875 C 182.730469 107.929688 183.230469 107.144531 183.730469 106.359375 C 185.996094 102.757812 187.550781 98.980469 189 95 C 189.191406 94.480469 189.382812 93.960938 189.578125 93.425781 C 195.09375 77.113281 192.933594 59.269531 185.5 43.964844 C 183.070312 39.265625 179.902344 35.035156 176.5 31 C 176.242188 30.683594 175.988281 30.367188 175.726562 30.039062 C 165.390625 17.449219 148.757812 10.792969 132.9375 9.125 C 132.125 9.074219 131.3125 9.03125 130.5 9 C 130.128906 8.980469 129.757812 8.960938 129.375 8.9375 C 113.535156 8.484375 97.328125 14.542969 85.5 25 C 85.171875 25.265625 84.847656 25.535156 84.507812 25.808594 C 72.167969 35.886719 65.164062 52.304688 63.589844 67.871094 C 62.191406 85.296875 67.652344 102.433594 78.972656 115.765625 C 89.835938 128.117188 104.867188 136.136719 121.28125 137.726562 C 121.6875 137.765625 122.09375 137.808594 122.515625 137.847656 C 123.324219 137.925781 124.136719 138 124.949219 138.0625 C 127.785156 138.332031 127.785156 138.332031 128.859375 139.175781 C 129.5 140 129.5 140 129.6875 141.5 C 129.5 143 129.5 143 128.925781 143.832031 C 125.949219 145.980469 119.839844 144.433594 116.34375 143.90625 C 103.511719 141.792969 91.855469 136.542969 82 128 C 81.589844 127.652344 81.183594 127.304688 80.761719 126.945312 C 75.542969 122.386719 71.238281 117.324219 67.5 111.5 C 67.160156 110.972656 66.820312 110.445312 66.472656 109.898438 C 59.875 99.035156 56.886719 86.726562 56.875 74.09375 C 56.875 73.746094 56.875 73.402344 56.875 73.042969 C 56.902344 53.601562 64.742188 35.738281 78.5 22 C 80.273438 20.414062 82.109375 18.945312 84 17.5 C 84.425781 17.167969 84.851562 16.832031 85.289062 16.492188 C 113.398438 -4.84375 151.394531 -0.859375 177.1875 21.8125 Z M 177.1875 21.8125 "/>
<path style=" stroke:none;fill-rule:nonzero;fill:rgb(99.607843%,50.588235%,54.117647%);fill-opacity:1;" d="M 114.621094 43.082031 C 117.445312 44.964844 119.722656 47.46875 122.0625 49.90625 C 122.59375 50.449219 123.125 50.992188 123.65625 51.535156 C 124.945312 52.847656 126.222656 54.171875 127.5 55.5 C 129.398438 54.722656 130.539062 53.542969 131.941406 52.066406 C 132.417969 51.578125 132.890625 51.089844 133.367188 50.597656 C 134.105469 49.835938 134.839844 49.066406 135.570312 48.296875 C 138.917969 44.777344 141.785156 41.996094 146.71875 41.234375 C 150.730469 41.273438 153.441406 41.65625 156.464844 44.363281 C 159.011719 47.015625 160.359375 49.652344 160.578125 53.332031 C 160.351562 59.875 155.738281 64.039062 151.3125 68.3125 C 150.796875 68.820312 150.28125 69.328125 149.761719 69.832031 C 148.515625 71.0625 147.257812 72.28125 146 73.5 C 148.707031 76.773438 151.699219 79.691406 154.769531 82.621094 C 158.148438 85.917969 160.253906 88.914062 160.546875 93.707031 C 160.417969 97.253906 159.28125 100.191406 156.839844 102.765625 C 153.832031 105.394531 150.734375 106.203125 146.820312 106.132812 C 142.207031 105.667969 139.160156 102.625 136 99.5 C 135.683594 99.191406 135.371094 98.878906 135.046875 98.558594 C 132.851562 96.386719 130.671875 94.199219 128.5 92 C 126.699219 92.757812 125.578125 93.820312 124.222656 95.214844 C 123.574219 95.875 123.574219 95.875 122.914062 96.542969 C 122.015625 97.46875 121.117188 98.394531 120.21875 99.316406 C 116.5625 103.042969 113.527344 105.964844 108.0625 106.15625 C 104.324219 106.0625 101.511719 104.910156 98.769531 102.359375 C 96.246094 99.539062 95.378906 96.242188 95.5 92.5 C 96.03125 88.085938 98.453125 85.519531 101.5 82.5 C 102.230469 81.765625 102.957031 81.03125 103.683594 80.292969 C 105.78125 78.1875 107.886719 76.089844 110 74 C 107.398438 70.859375 104.550781 68.050781 101.59375 65.246094 C 98.089844 61.824219 95.636719 58.425781 95.402344 53.417969 C 95.667969 49.519531 97.144531 46.265625 100.082031 43.683594 C 104.464844 40.40625 109.890625 40.574219 114.621094 43.082031 Z M 103.09375 49.75 C 101.710938 51.5 101.757812 53.375 102 55.5 C 103.464844 58.226562 105.824219 60.371094 108.027344 62.5 C 108.300781 62.769531 108.578125 63.035156 108.859375 63.308594 C 110.007812 64.414062 111.160156 65.519531 112.324219 66.613281 C 113.179688 67.421875 114.027344 68.242188 114.871094 69.0625 C 115.136719 69.308594 115.398438 69.550781 115.671875 69.800781 C 116.960938 71.074219 117.484375 71.933594 117.859375 73.71875 C 117.359375 76.191406 116.167969 77.257812 114.363281 78.941406 C 114.042969 79.253906 113.722656 79.566406 113.394531 79.890625 C 112.375 80.882812 111.34375 81.863281 110.3125 82.84375 C 109.285156 83.832031 108.261719 84.820312 107.242188 85.8125 C 106.605469 86.429688 105.964844 87.042969 105.324219 87.652344 C 105.035156 87.929688 104.742188 88.210938 104.445312 88.496094 C 104.1875 88.738281 103.933594 88.984375 103.671875 89.234375 C 102.421875 90.660156 102.023438 91.804688 101.8125 93.6875 C 102.035156 95.835938 102.648438 96.839844 104 98.5 C 106.066406 99.878906 107.582031 99.882812 110 99.5 C 114.34375 97.277344 117.835938 92.675781 121.152344 89.175781 C 121.964844 88.320312 122.789062 87.472656 123.613281 86.628906 C 123.859375 86.363281 124.105469 86.101562 124.355469 85.828125 C 125.519531 84.652344 126.355469 84.035156 127.976562 83.648438 C 130.1875 84.160156 131.242188 85.386719 132.765625 87.007812 C 133.066406 87.316406 133.367188 87.625 133.679688 87.941406 C 134.636719 88.921875 135.585938 89.914062 136.53125 90.90625 C 137.480469 91.890625 138.433594 92.875 139.390625 93.855469 C 139.984375 94.464844 140.574219 95.078125 141.160156 95.695312 C 142.90625 97.507812 144.574219 99.230469 147.140625 99.714844 C 149.121094 99.71875 150.230469 99.660156 151.96875 98.625 C 153.496094 96.960938 153.9375 96.078125 154.1875 93.8125 C 153.828125 90.320312 151.285156 88.171875 148.851562 85.875 C 148.242188 85.289062 147.632812 84.699219 147.023438 84.109375 C 146.074219 83.191406 145.117188 82.277344 144.15625 81.367188 C 143.226562 80.484375 142.304688 79.585938 141.382812 78.6875 C 141.09375 78.421875 140.804688 78.152344 140.507812 77.878906 C 139.152344 76.542969 138.527344 75.632812 138.132812 73.757812 C 138.636719 71.355469 139.75 70.320312 141.507812 68.683594 C 141.816406 68.382812 142.125 68.082031 142.441406 67.773438 C 143.421875 66.820312 144.414062 65.878906 145.40625 64.9375 C 146.390625 63.992188 147.375 63.042969 148.355469 62.089844 C 148.964844 61.5 149.578125 60.910156 150.195312 60.328125 C 152.261719 58.34375 153.871094 56.710938 154.1875 53.75 C 153.941406 51.445312 153.246094 50.246094 151.625 48.625 C 150.046875 47.746094 148.804688 47.5625 147 47.5 C 144.324219 48.535156 142.679688 50.15625 140.75 52.191406 C 140.136719 52.824219 139.519531 53.453125 138.90625 54.082031 C 137.949219 55.074219 136.996094 56.066406 136.042969 57.0625 C 135.117188 58.027344 134.183594 58.984375 133.25 59.941406 C 132.96875 60.242188 132.6875 60.539062 132.398438 60.847656 C 131.078125 62.191406 130.230469 62.925781 128.410156 63.527344 C 126.757812 63.496094 126.34375 63.289062 125.175781 62.148438 C 124.839844 61.824219 124.5 61.5 124.152344 61.167969 C 123.769531 60.78125 123.390625 60.398438 123 60 C 122.550781 59.554688 122.105469 59.105469 121.644531 58.648438 C 119.878906 56.875 118.125 55.089844 116.382812 53.296875 C 115.632812 52.523438 114.875 51.757812 114.117188 50.988281 C 113.675781 50.535156 113.234375 50.082031 112.777344 49.613281 C 109.535156 46.785156 106.382812 47.027344 103.09375 49.75 Z M 103.09375 49.75 "/>
</g>
</svg>
