<svg xmlns="http://www.w3.org/2000/svg" width="377.343" height="377.343" viewBox="0 0 377.343 377.343" xml:space="preserve"><path d="M121.131 106.865h38.95v34.011h-38.95zm0 96.31h38.95v-34.011h-38.95zM321.406 73.223v230.911c0 10.866-8.844 19.71-19.717 19.71H75.651c-10.876 0-19.725-8.844-19.725-19.71V73.223c0-10.87 8.843-19.713 19.725-19.713H301.69c10.872-.005 19.716 8.843 19.716 19.713M198.122 106.77c0-7.453-3.839-13.998-11.504-19.628s-16.513-8.454-26.532-8.454h-76.86v152.669h76.859c10.02 0 18.868-2.786 26.532-8.362 7.666-5.57 11.504-12.142 11.504-19.731v-25.458c0-5.25-1.418-9.425-4.246-12.534q-4.255-4.665-10.389-10.397c4.09-3.691 7.558-7.075 10.389-10.156 2.828-3.078 4.246-7.302 4.246-12.681V106.77zm175.995-71.331v306.464c0 19.573-15.867 35.439-35.436 35.439H38.662c-19.568 0-35.437-15.866-35.437-35.439V35.439C3.226 15.869 19.094 0 38.662 0h300.02c19.568.005 35.435 15.874 35.435 35.439m-38.736 37.784c0-18.569-15.113-33.688-33.691-33.688H75.651c-18.576 0-33.695 15.114-33.695 33.688v230.911c0 18.565 15.114 33.685 33.695 33.685H301.69c18.572 0 33.691-15.113 33.691-33.685z" fill="white"/></svg>